<svg width="64" height="40" viewBox="0 0 64 40" fill="none" xmlns="http://www.w3.org/2000/svg">
<path d="M0 20C0 8.95431 8.95431 0 20 0V0C31.0457 0 40 8.95431 40 20V20C40 31.0457 31.0457 40 20 40V40C8.95431 40 0 31.0457 0 20V20Z" fill="white"/>
<path d="M23.7501 12.5C22.3001 12.5 20.9084 13.175 20.0001 14.2417C19.0917 13.175 17.7001 12.5 16.2501 12.5C13.6834 12.5 11.6667 14.5167 11.6667 17.0833C11.6667 20.2333 14.5001 22.8 18.7917 26.7L19.3272 27.1837C19.709 27.5287 20.2902 27.5276 20.6707 27.1812L21.2084 26.6917C25.5001 22.8 28.3334 20.2333 28.3334 17.0833C28.3334 14.5167 26.3167 12.5 23.7501 12.5ZM20.0834 25.4583L20.0001 25.5417L19.9167 25.4583C15.9501 21.8667 13.3334 19.4917 13.3334 17.0833C13.3334 15.4167 14.5834 14.1667 16.2501 14.1667C17.2631 14.1667 18.2553 14.6807 18.8456 15.4587C19.1285 15.8316 19.5336 16.1333 20.0016 16.1333V16.1333C20.4722 16.1333 20.879 15.8281 21.1631 15.4529C21.7499 14.6781 22.7396 14.1667 23.7501 14.1667C25.4167 14.1667 26.6667 15.4167 26.6667 17.0833C26.6667 19.4917 24.0501 21.8667 20.0834 25.4583Z" fill="#B2ACA0"/>
<path d="M20 39C9.50659 39 1 30.4934 1 20H-1C-1 31.598 8.40202 41 20 41V39ZM39 20C39 30.4934 30.4934 39 20 39V41C31.598 41 41 31.598 41 20H39ZM20 1C30.4934 1 39 9.50659 39 20H41C41 8.40202 31.598 -1 20 -1V1ZM20 -1C8.40202 -1 -1 8.40202 -1 20H1C1 9.50659 9.50659 1 20 1V-1Z" fill="#111113" fill-opacity="0.1"/>
</svg>
