<svg width="18" height="16" viewBox="0 0 18 16" fill="none" xmlns="http://www.w3.org/2000/svg">
<path d="M12.7501 0.5C11.3001 0.5 9.90842 1.175 9.00008 2.24167C8.09175 1.175 6.70008 0.5 5.25008 0.5C2.68341 0.5 0.666748 2.51667 0.666748 5.08333C0.666748 8.23333 3.50008 10.8 7.79175 14.7L8.32715 15.1837C8.70896 15.5287 9.29021 15.5276 9.67071 15.1812L10.2084 14.6917C14.5001 10.8 17.3334 8.23333 17.3334 5.08333C17.3334 2.51667 15.3167 0.5 12.7501 0.5ZM9.08342 13.4583L9.00008 13.5417L8.91675 13.4583C4.95008 9.86667 2.33341 7.49167 2.33341 5.08333C2.33341 3.41667 3.58341 2.16667 5.25008 2.16667C6.26307 2.16667 7.25529 2.68069 7.84559 3.45874C8.12846 3.83158 8.5336 4.13333 9.00159 4.13333V4.13333C9.47222 4.13333 9.87896 3.82807 10.1631 3.45289C10.7499 2.67812 11.7396 2.16667 12.7501 2.16667C14.4167 2.16667 15.6667 3.41667 15.6667 5.08333C15.6667 7.49167 13.0501 9.86667 9.08342 13.4583Z" fill="#B2ACA0"/>
</svg>
