<svg width="18" height="16" viewBox="0 0 18 16" fill="none" xmlns="http://www.w3.org/2000/svg">
<path d="M9.00049 14.8748C9.00049 14.8748 1.18799 10.4998 1.18799 5.18726C1.18815 4.2483 1.5135 3.33838 2.10873 2.6122C2.70395 1.88601 3.53232 1.38839 4.45298 1.20393C5.37364 1.01948 6.32977 1.15958 7.15881 1.60041C7.98785 2.04125 8.63863 2.7556 9.00049 3.62203L9.00048 3.62203C9.36235 2.75561 10.0131 2.04125 10.8422 1.60042C11.6712 1.15958 12.6273 1.01948 13.548 1.20393C14.4687 1.38839 15.297 1.88601 15.8922 2.6122C16.4875 3.33838 16.8128 4.2483 16.813 5.18726C16.813 10.4998 9.00049 14.8748 9.00049 14.8748Z" stroke="#111113" stroke-width="1.71429" stroke-linecap="round" stroke-linejoin="round"/>
</svg>
