<svg width="20" height="20" viewBox="0 0 20 20" fill="none" xmlns="http://www.w3.org/2000/svg">
<path fill-rule="evenodd" clip-rule="evenodd" d="M9.16748 3.33317C5.94582 3.33317 3.33415 5.94484 3.33415 9.1665C3.33415 12.3882 5.94582 14.9998 9.16748 14.9998C12.3891 14.9998 15.0008 12.3882 15.0008 9.1665C15.0008 5.94484 12.3891 3.33317 9.16748 3.33317ZM1.66748 9.1665C1.66748 5.02437 5.02534 1.6665 9.16748 1.6665C13.3096 1.6665 16.6675 5.02437 16.6675 9.1665C16.6675 13.3086 13.3096 16.6665 9.16748 16.6665C5.02534 16.6665 1.66748 13.3086 1.66748 9.1665Z" fill="#111113"/>
<path fill-rule="evenodd" clip-rule="evenodd" d="M13.2856 13.2853C13.611 12.9599 14.1387 12.9599 14.4641 13.2853L18.0891 16.9103C18.4145 17.2358 18.4145 17.7634 18.0891 18.0888C17.7637 18.4143 17.236 18.4143 16.9106 18.0888L13.2856 14.4638C12.9601 14.1384 12.9601 13.6108 13.2856 13.2853Z" fill="#111113"/>
</svg>
