<svg display="none" xmlns="http://www.w3.org/2000/svg">
  <symbol id="heart" viewBox="0 0 455.731 455.731">
    <g>
      <path  d="M 6.375 0.25 C 5.648438 0.25 4.953125 0.585938 4.5 1.121094
       C 4.046875 0.585938 3.351562 0.25 2.625 0.25 C 1.339844 0.25 0.332031 1.257812 0.332031 
       2.542969 C 0.332031 4.117188 1.75 5.398438 3.894531 7.351562 L 4.164062 7.59375 C 4.355469 
       7.765625 4.644531 7.765625 4.835938 7.589844 L 5.105469 7.347656 C 7.25 5.398438 8.667969 
       4.117188 8.667969 2.542969 C 8.667969 1.257812 7.660156 0.25 6.375 0.25 Z M 4.542969 6.730469 L 
       4.5 6.769531 L 4.457031 6.730469 C 2.476562 4.933594 1.167969 3.746094 1.167969 2.542969 C 
       1.167969 1.707031 1.792969 1.082031 2.625 1.082031 C 3.132812 1.082031 3.628906 1.339844 3.921875 
       1.730469 C 4.0625 1.914062 4.265625 2.066406 4.5 2.066406 C 4.734375 2.066406 4.941406 1.914062 
       5.082031 1.726562 C 5.375 1.339844 5.871094 1.082031 6.375 1.082031 C 7.207031 1.082031 7.832031 
       1.707031 7.832031 2.542969 C 7.832031 3.746094 6.523438 4.933594 4.542969 6.730469 Z M 4.542969 
       6.730469 "/>
    </g>
  </symbol>
</svg>

